#!OML:ASF I:\golf\golf\golf 2\Subject 1\2002-09-07\Subject1.ASF
:FULLY-SPECIFIED
:DEGREES
440
root -6.46046 17.8498 -2.08324 -167.694 -3.25944 -175.352
lowerback -11.4 15.8339 12.0062
upperback -15.4421 17.5118 0.167084
thorax -7.24585 6.38833 -4.43981
lowerneck -10.0687 -19.7442 -4.09623
upperneck 7.51181 -26.9927 5.70722
head 5.13694 -13.159 0.0921426
rclavicle -9.02482e-014 -9.22361e-014
rhumerus 106.511 24.0357 -56.9443
rradius 64.309
rwrist 0.693762
rhand -48.0516 29.3777
rfingers 7.12502
rthumb -20.7179 0.463629
lclavicle -9.02482e-014 -9.22361e-014
lhumerus 72.0756 23.9223 54.0929
lradius 66.2937
lwrist 22.1424
lhand -25.4033 8.91324
lfingers 7.12502
lthumb -178.878 578.89
rfemur 17.1327 -7.1472 21.0866
rtibia 14.5321
rfoot 34.4381 -33.3314
rtoes 26.8723
lfemur -28.4125 -18.7747 -14.255
ltibia 29.8066
lfoot 41.1483 -43.0804
ltoes 54.2833
441
root -6.44483 17.8522 -2.08102 -167.662 -3.16412 -175.271
lowerback -11.3737 15.7104 11.9259
upperback -15.3359 17.3763 0.259896
thorax -7.20562 6.34757 -4.32973
lowerneck -10.1952 -19.6375 -3.96615
upperneck 7.56391 -26.8171 5.49302
head 5.11874 -13.0757 0.0305081
rclavicle -2.127e-014 1.98785e-014
rhumerus 106.361 23.7789 -56.8218
rradius 63.8928
rwrist -0.188515
rhand -47.5388 29.2397
rfingers 7.12502
rthumb -20.2252 0.272675
lclavicle -2.127e-014 1.98785e-014
lhumerus 71.8672 23.7805 53.8235
lradius 65.4945
lwrist 22.3658
lhand -24.6453 8.60776
lfingers 7.12502
lthumb -178.146 578.579
rfemur 17.113 -6.97854 21.2359
rtibia 14.5294
rfoot 34.4544 -33.1701
rtoes 26.3871
lfemur -28.4462 -18.6955 -14.0749
ltibia 29.782
lfoot 40.7227 -43.3843
ltoes 53.976
442
root -6.42919 17.8536 -2.07797 -167.631 -3.0289 -175.308
lowerback -11.3433 15.6402 11.7205
upperback -15.2245 17.3315 0.274353
thorax -7.15456 6.36757 -4.22914
lowerneck -10.282 -19.6 -3.79828
upperneck 7.47245 -26.7471 5.37117
head 5.06199 -13.0438 -0.00942684
rclavicle 3.24019e-014 8.5875e-014
rhumerus 106.068 23.5388 -56.7333
rradius 63.4367
rwrist -0.943578
rhand -46.8495 29.5176
rfingers 7.12502
rthumb -19.5626 0.481776
lclavicle 3.24019e-014 8.5875e-014
lhumerus 71.7497 23.44 53.5727
lradius 64.7014
lwrist 22.8142
lhand -24.0057 8.54025
lfingers 7.12502
lthumb -177.528 578.506
rfemur 17.1281 -6.85622 21.2235
rtibia 14.4824
rfoot 34.5147 -32.7899
rtoes 25.9512
lfemur -28.4889 -18.6587 -14.0279
ltibia 29.8012
lfoot 40.2965 -43.5106
ltoes 53.9239
443
root -6.41718 17.8526 -2.07175 -167.575 -2.87912 -175.392
lowerback -11.2536 15.6033 11.5666
upperback -15.1609 17.3321 0.248054
thorax -7.15774 6.39444 -4.20282
lowerneck -10.256 -19.5806 -3.73035
upperneck 7.3692 -26.7101 5.33693
head 5.01057 -13.0292 -0.0103413
rclavicle -1.28216e-013 -1.06946e-013
rhumerus 105.714 23.3906 -56.6297
rradius 62.911
rwrist -1.65681
rhand -46.3045 29.5151
rfingers 7.12502
rthumb -19.0385 0.426926
lclavicle -1.28216e-013 -1.06946e-013
lhumerus 71.6397 23.0115 53.3354
lradius 63.8206
lwrist 23.3025
lhand -23.4051 8.4396
lfingers 7.12502
lthumb -176.948 578.398
rfemur 17.1152 -6.8856 21.0656
rtibia 14.4463
rfoot 34.6565 -32.257
rtoes 25.1967
lfemur -28.5709 -18.6971 -14.0412
ltibia 29.8518
lfoot 39.8901 -43.4057
ltoes 53.8714
444
root -6.40578 17.8508 -2.06425 -167.492 -2.74863 -175.265
lowerback -11.1626 15.5466 11.6587
upperback -15.11 17.2776 0.267476
thorax -7.13669 6.3669 -4.24802
lowerneck -10.3195 -19.4848 -3.54707
upperneck 7.31653 -26.5785 5.24459
head 4.9631 -12.9665 -0.0387056
rclavicle -9.28324e-014 -5.20816e-014
rhumerus 105.48 23.1923 -56.5337
rradius 62.4177
rwrist -2.5076
rhand -45.766 29.2635
rfingers 7.12502
rthumb -18.5206 0.125152
lclavicle -9.28324e-014 -5.20816e-014
lhumerus 71.4428 22.7002 52.917
lradius 62.9369
lwrist 23.6458
lhand -22.8266 8.19637
lfingers 7.12502
lthumb -176.389 578.146
rfemur 17.0043 -6.91702 21.1385
rtibia 14.4952
rfoot 34.6889 -31.8436
rtoes 24.1671
lfemur -28.7073 -18.6459 -13.8203
ltibia 29.9025
lfoot 39.5678 -43.4631
ltoes 53.4634
445
root -6.39493 17.8507 -2.05863 -167.446 -2.56801 -175.109
lowerback -11.0324 15.4864 11.7952
upperback -15.0389 17.2263 0.301911
thorax -7.1064 6.34073 -4.30403
lowerneck -10.4604 -19.3653 -3.3956
upperneck 7.3192 -26.4089 5.14177
head 4.94646 -12.882 -0.0748087
rclavicle 1.68967e-014 4.57205e-014
rhumerus 105.241 22.9916 -56.4644
rradius 61.9339
rwrist -3.18339
rhand -45.1882 28.8422
rfingers 7.12502
rthumb -17.9648 -0.348137
lclavicle 1.68967e-014 4.57205e-014
lhumerus 71.2216 22.4207 52.4659
lradius 62.1345
lwrist 24.1101
lhand -22.1623 8.0318
lfingers 7.12502
lthumb -175.748 577.969
rfemur 16.9233 -6.78879 21.2784
rtibia 14.5733
rfoot 34.2902 -31.9063
rtoes 24.2659
lfemur -28.7847 -18.5644 -13.5889
ltibia 29.9553
lfoot 39.1565 -43.7373
ltoes 52.803
446
root -6.38299 17.8525 -2.05218 -167.422 -2.35105 -175.074
lowerback -10.8729 15.4842 11.804
upperback -14.9642 17.2729 0.309606
thorax -7.09783 6.37706 -4.3218
lowerneck -10.5451 -19.3423 -3.5103
upperneck 7.42935 -26.3487 5.07931
head 4.99735 -12.8502 -0.0896358
rclavicle 4.17448e-015 1.98785e-015
rhumerus 104.878 22.8701 -56.3659
rradius 61.335
rwrist -3.6921
rhand -44.571 28.4946
rfingers 7.12502
rthumb -17.3708 -0.749229
lclavicle 4.17448e-015 1.98785e-015
lhumerus 71.1413 21.9237 52.3137
lradius 61.299
lwrist 24.686
lhand -21.5144 7.96307
lfingers 7.12502
lthumb -175.122 577.887
rfemur 16.8791 -6.61805 21.3092
rtibia 14.6357
rfoot 33.7006 -32.2367
rtoes 25.0572
lfemur -28.8225 -18.5331 -13.5011
ltibia 30.0018
lfoot 38.6758 -43.9296
ltoes 52.2936
447
root -6.36764 17.8547 -2.04128 -167.358 -2.17998 -175.005
lowerback -10.7595 15.4597 11.7963
upperback -14.8985 17.2779 0.332785
thorax -7.09043 6.39178 -4.31387
lowerneck -10.5467 -19.3215 -3.60457
upperneck 7.48262 -26.3052 5.07297
head 5.02357 -12.8282 -0.0819983
rclavicle 2.64384e-014 3.06128e-014
rhumerus 104.569 22.9157 -56.3793
rradius 60.589
rwrist -4.23869
rhand -43.8739 28.5587
rfingers 7.12502
rthumb -16.6999 -0.742997
lclavicle 2.64384e-014 3.06128e-014
lhumerus 71.085 21.4032 52.1977
lradius 60.4046
lwrist 25.1165
lhand -20.8708 7.8488
lfingers 7.12502
lthumb -174.501 577.757
rfemur 16.7604 -6.57711 21.3909
rtibia 14.7179
rfoot 33.4015 -32.3327
rtoes 25.0832
lfemur -28.913 -18.5641 -13.3328
ltibia 30.0111
lfoot 38.1788 -43.9616
ltoes 52.1278
448
root -6.35279 17.8577 -2.02966 -167.299 -2.01013 -174.949
lowerback -10.6445 15.3725 11.7689
upperback -14.8149 17.2035 0.376986
thorax -7.08572 6.37093 -4.28741
lowerneck -10.6041 -19.2117 -3.40762
upperneck 7.42439 -26.1439 4.91586
head 4.96236 -12.7538 -0.124235
rclavicle -1.66582e-013 -1.07741e-013
rhumerus 104.332 23.0055 -56.4398
rradius 59.8732
rwrist -4.68919
rhand -43.2806 28.6767
rfingers 7.12502
rthumb -16.1286 -0.672153
lclavicle -1.66582e-013 -1.07741e-013
lhumerus 70.9272 21.0834 51.9207
lradius 59.5482
lwrist 25.4147
lhand -19.8875 7.6404
lfingers 7.12502
lthumb -173.552 577.522
rfemur 16.6003 -6.71187 21.383
rtibia 14.8616
rfoot 33.4787 -32.0602
rtoes 24.3682
lfemur -28.9915 -18.6376 -13.1724
ltibia 29.9816
lfoot 37.7362 -43.968
ltoes 52.2204
449
root -6.33832 17.8623 -2.01763 -167.231 -1.88249 -174.951
lowerback -10.5623 15.2589 11.6828
upperback -14.7027 17.0957 0.436345
thorax -7.05462 6.34485 -4.21452
lowerneck -10.7116 -19.0786 -3.18663
upperneck 7.37705 -25.9378 4.67952
head 4.89744 -12.6585 -0.190034
rclavicle 1.5704e-014 -2.78299e-014
rhumerus 104.128 23.0701 -56.3759
rradius 59.2163
rwrist -5.15
rhand -42.9983 28.6588
rfingers 7.12502
rthumb -15.8568 -0.71192
lclavicle 1.5704e-014 -2.78299e-014
lhumerus 70.6715 20.8277 51.5365
lradius 58.7396
lwrist 25.822
lhand -19.0033 7.4361
lfingers 7.12502
lthumb -172.698 577.29
rfemur 16.3995 -6.86764 21.3295
rtibia 15.066
rfoot 33.5732 -31.747
rtoes 23.6501
lfemur -29.0895 -18.6737 -13.0801
ltibia 29.9446
lfoot 37.6285 -43.8988
ltoes 52.5113
